<svg width="70" height="70" viewBox="0 0 70 70" fill="none" xmlns="http://www.w3.org/2000/svg">
<path d="M18.9584 29.1669C18.308 29.1669 17.6838 29.2661 17.0626 29.3565C17.2638 28.6798 17.4709 27.9915 17.8034 27.3731C18.1359 26.4748 18.6551 25.6961 19.1713 24.9115C19.603 24.0627 20.3642 23.4881 20.9242 22.7619C21.5105 22.0561 22.3096 21.5865 22.9426 21.0002C23.5638 20.3877 24.3776 20.0815 25.0251 19.6498C25.7017 19.2619 26.2909 18.8331 26.9209 18.629L28.493 17.9815L29.8755 17.4069L28.4609 11.7544L26.7196 12.1744C26.1626 12.3144 25.483 12.4777 24.7101 12.6731C23.9196 12.819 23.0767 13.2186 22.1376 13.5831C21.2101 13.9973 20.1367 14.2773 19.1392 14.9423C18.1359 15.5781 16.978 16.109 15.9571 16.9606C14.9684 17.8386 13.7755 18.5998 12.8946 19.7169C11.9321 20.7611 10.9813 21.8577 10.2434 23.1061C9.38881 24.2961 8.80839 25.6027 8.19589 26.8948C7.64172 28.1869 7.19547 29.5081 6.83089 30.7915C6.13964 33.364 5.83047 35.8081 5.71089 37.8994C5.61172 39.9936 5.67006 41.7348 5.79256 42.9948C5.83631 43.5898 5.91797 44.1673 5.97631 44.5669L6.04922 45.0569L6.12506 45.0394C6.64382 47.4627 7.83803 49.6895 9.56953 51.4624C11.301 53.2353 13.4991 54.4818 15.9094 55.0576C18.3197 55.6335 20.8439 55.5152 23.1898 54.7164C25.5357 53.9176 27.6075 52.471 29.1656 50.544C30.7237 48.6169 31.7044 46.2881 31.9942 43.8269C32.284 41.3658 31.8712 38.8729 30.8034 36.6365C29.7356 34.4002 28.0565 32.5119 25.9603 31.19C23.8641 29.8682 21.4366 29.1667 18.9584 29.1669ZM51.0417 29.1669C50.3913 29.1669 49.7671 29.2661 49.1459 29.3565C49.3471 28.6798 49.5542 27.9915 49.8867 27.3731C50.2192 26.4748 50.7384 25.6961 51.2546 24.9115C51.6863 24.0627 52.4476 23.4881 53.0076 22.7619C53.5938 22.0561 54.393 21.5865 55.0259 21.0002C55.6471 20.3877 56.4609 20.0815 57.1084 19.6498C57.7851 19.2619 58.3742 18.8331 59.0042 18.629L60.5763 17.9815L61.9588 17.4069L60.5442 11.7544L58.803 12.1744C58.2459 12.3144 57.5663 12.4777 56.7934 12.6731C56.003 12.819 55.1601 13.2186 54.2209 13.5831C53.2963 14.0002 52.2201 14.2773 51.2226 14.9452C50.2192 15.5811 49.0613 16.1119 48.0405 16.9636C47.0517 17.8415 45.8588 18.6027 44.978 19.7169C44.0155 20.7611 43.0646 21.8577 42.3267 23.1061C41.4721 24.2961 40.8917 25.6027 40.2792 26.8948C39.7251 28.1869 39.2788 29.5081 38.9142 30.7915C38.223 33.364 37.9138 35.8081 37.7942 37.8994C37.6951 39.9936 37.7534 41.7348 37.8759 42.9948C37.9196 43.5898 38.0013 44.1673 38.0596 44.5669L38.1326 45.0569L38.2084 45.0394C38.7272 47.4627 39.9214 49.6895 41.6529 51.4624C43.3844 53.2353 45.5824 54.4818 47.9928 55.0576C50.4031 55.6335 52.9272 55.5152 55.2731 54.7164C57.619 53.9176 59.6908 52.471 61.2489 50.544C62.807 48.6169 63.7877 46.2881 64.0775 43.8269C64.3674 41.3658 63.9545 38.8729 62.8867 36.6365C61.8189 34.4002 60.1398 32.5119 58.0436 31.19C55.9475 29.8682 53.5199 29.1667 51.0417 29.1669Z" fill="#1B2753" fill-opacity="0.2"/>
</svg>
