<svg width="130" height="130" viewBox="0 0 130 130" fill="none" xmlns="http://www.w3.org/2000/svg">
<path d="M114.515 64.6801L103.066 50.5875C101.66 48.8559 99.5731 47.8627 97.3433 47.8627H82.1444L82.1437 34.6183C82.1437 30.5528 78.8357 27.2449 74.7703 27.2449H60.495V26.3715C60.495 24.5767 59.0397 23.1215 57.245 23.1215H38.688C36.8933 23.1215 35.438 24.5767 35.438 26.3715V27.2449H21.1627C17.0973 27.2449 13.7893 30.5528 13.7893 34.6183V87.1959C13.7893 91.2614 17.0973 94.5693 21.1627 94.5693H30.3346C30.751 101.444 36.4602 106.914 43.4377 106.914C50.4157 106.914 56.1242 101.444 56.5407 94.5693H79.8033C80.2197 101.444 85.9289 106.914 92.9064 106.914C99.8844 106.914 105.593 101.444 106.009 94.5693H108.791C112.856 94.5693 116.164 91.2614 116.164 87.1959L116.165 69.3296C116.165 67.6415 115.579 65.991 114.515 64.681L114.515 64.6801ZM41.9374 29.6209H53.9944V43.2912L49.9007 40.2588C49.3261 39.833 48.6464 39.6204 47.9659 39.6204C47.2862 39.6204 46.6057 39.833 46.0312 40.2588L41.9374 43.2912V29.6209ZM20.2887 87.1942V34.6166C20.2887 34.1349 20.6805 33.7432 21.1622 33.7432H35.4375V49.7416C35.4375 50.969 36.1288 52.092 37.2257 52.6441C38.3226 53.1969 39.6363 53.0837 40.6222 52.3532L47.9659 46.9131L55.3096 52.3532C55.8798 52.7761 56.5603 52.9916 57.2444 52.9916C57.7428 52.9916 58.2441 52.877 58.7062 52.6441C59.803 52.092 60.4944 50.969 60.4944 49.7416V33.7432H74.7697C75.2514 33.7432 75.6431 34.1349 75.6431 34.6166V88.0671L55.261 88.0678C53.1325 83.6716 48.6392 80.6255 43.4362 80.6255C38.2332 80.6255 33.7399 83.6723 31.6114 88.0678H21.1612C20.6795 88.0678 20.2878 87.6753 20.2878 87.1936L20.2887 87.1942ZM43.438 100.413C39.7744 100.413 36.7945 97.4325 36.7945 93.7691C36.7945 90.1055 39.7746 87.1255 43.438 87.1255C47.1016 87.1255 50.0816 90.1057 50.0816 93.7691C50.0816 97.4326 47.1007 100.413 43.438 100.413ZM92.9049 100.413C89.2413 100.413 86.2613 97.4325 86.2613 93.7691C86.2613 90.1055 89.2415 87.1255 92.9049 87.1255C96.5685 87.1255 99.5484 90.1057 99.5484 93.7691C99.5484 97.4326 96.5683 100.413 92.9049 100.413ZM109.663 87.1942C109.663 87.6759 109.272 88.0676 108.79 88.0676H104.73C102.601 83.6714 98.1078 80.6253 92.9049 80.6253C88.455 80.6253 84.5215 82.8532 82.1429 86.2469V54.3616H97.3418C97.6058 54.3616 97.8532 54.4799 98.02 54.6852L109.468 68.7777C109.594 68.933 109.664 69.1281 109.664 69.3276L109.663 87.1942Z" fill="#110011"/>
</svg>
