<svg width="130" height="130" viewBox="0 0 130 130" fill="none" xmlns="http://www.w3.org/2000/svg">
<path d="M53.9235 95.0679V87.8067H40.6117C39.0071 87.8067 37.4682 87.1694 36.3329 86.0349C35.1984 84.9004 34.5611 83.3608 34.5611 81.7561V40.6118C34.5611 39.0071 35.1984 37.4683 36.3329 36.3329C37.4682 35.1984 39.007 34.5611 40.6117 34.5611H56.3436V49.0824H63.6048L63.6039 34.5611H79.3358C80.9404 34.5611 82.4793 35.1984 83.6146 36.3329C84.7491 37.4683 85.3864 39.0071 85.3864 40.6118V61.1837H92.6476V40.6118C92.6476 37.0817 91.2447 33.6959 88.7486 31.199C86.2525 28.7029 82.8668 27.3 79.3358 27.3H40.6118C37.0817 27.3 33.6959 28.7029 31.199 31.199C28.7029 33.6959 27.3 37.0817 27.3 40.6118V81.7561C27.3 85.287 28.7029 88.6728 31.199 91.1689C33.6959 93.6659 37.0817 95.0679 40.6118 95.0679L53.9235 95.0679Z" fill="#110011"/>
<path d="M86.5969 70.8653H66.3154L74.7861 62.3946L69.6547 57.2632L54.9882 71.9306C54.3087 72.611 53.9263 73.5336 53.9263 74.4959C53.9263 75.4581 54.3087 76.3808 54.9882 77.0611L69.6547 91.7276L74.7861 86.5971L66.3154 78.1265H86.5969C89.6231 78.1265 92.4195 79.7404 93.9331 82.3615C95.4457 84.9825 95.4457 88.2111 93.9331 90.8321C92.4196 93.4531 89.6231 95.068 86.5969 95.068H78.1262V102.329H86.5969C92.2171 102.329 97.4109 99.33 100.221 94.4629C103.031 89.5959 103.031 83.5993 100.221 78.7311C97.4109 73.864 92.2171 70.8657 86.5969 70.8657V70.8653Z" fill="#110011"/>
</svg>
