<svg width="130" height="130" viewBox="0 0 130 130" fill="none" xmlns="http://www.w3.org/2000/svg">
<path d="M55.9488 74.9982L55.9548 75.0022L55.961 75.0061C57.6384 76.0551 59.7153 76.9103 62.0092 77.1978V78.2422C61.887 79.5802 62.7125 80.5126 63.7099 80.8986C64.6805 81.2744 65.9173 81.1751 66.738 80.377C67.3237 79.9195 67.5005 79.2061 67.5572 78.5817C67.5966 78.1483 67.5821 77.6615 67.5697 77.2444C67.5691 77.2262 67.5686 77.2082 67.568 77.1903C69.6188 76.89 71.1112 76.0013 72.3867 74.7287C73.5855 73.6439 74.2131 71.9963 74.3555 70.3186C74.4985 68.6334 74.159 66.8487 73.3418 65.4479L73.3364 65.4385L73.3305 65.4294C72.2501 63.7489 70.3569 62.9495 68.4718 62.4031C67.7871 62.2047 67.0793 62.0336 66.3963 61.8684C66.1352 61.8053 65.8778 61.7431 65.6266 61.6805C64.7049 61.4509 63.8585 61.2151 63.14 60.9072L63.14 60.9072C62.5431 60.6514 62.2958 60.2165 62.2778 59.8013C62.2591 59.3724 62.4823 58.8803 63.0035 58.5327C63.8177 57.99 65.0126 57.9132 66.2921 58.1483C67.5461 58.3787 68.7772 58.8906 69.5915 59.3954C70.3807 59.9954 71.1926 60.1961 71.9311 60.0536C72.6675 59.9115 73.259 59.4417 73.6321 58.8414C74.3773 57.6426 74.3049 55.8302 72.7761 54.6836L72.7591 54.6709L72.7411 54.6597C71.1165 53.6441 69.2736 52.7947 67.5592 52.4874V51.3998C67.5592 50.5157 67.2398 49.7838 66.6972 49.275C66.1595 48.7709 65.4362 48.5167 64.6761 48.5167C63.1 48.5167 61.793 49.8237 61.793 51.3998V52.704C59.2114 53.1742 57.039 54.8871 55.8699 57.008C54.6316 59.2541 54.4915 62.0219 56.2637 64.271C57.3364 65.6979 58.9791 66.4402 60.6551 66.9622C61.3961 67.193 62.1635 67.3863 62.9068 67.5735C63.0084 67.5991 63.1095 67.6246 63.2101 67.65C64.0538 67.8635 64.8586 68.0751 65.5918 68.3369L65.6211 68.3473L65.6515 68.3541C66.475 68.537 67.0263 69.0758 67.2083 69.6218C67.2981 69.8914 67.299 70.1607 67.2094 70.4063C67.1214 70.6477 66.934 70.8994 66.5904 71.1173C65.5279 71.6918 64.2452 71.8019 62.9103 71.5964C61.5843 71.3924 60.2443 70.882 59.0986 70.2612C58.3084 69.6651 57.4951 69.4816 56.7574 69.6456C56.0218 69.809 55.4356 70.3017 55.067 70.9108C54.3357 72.1191 54.3806 73.9529 55.9488 74.9982ZM66.3267 19.8429L66.3259 19.8422L66.3258 19.842L66.2457 19.7619L66.1335 19.7246C65.3845 19.4755 64.3482 19.4575 63.5346 19.9979C63.5336 19.9986 63.5326 19.9992 63.5316 19.9999L31.0854 40.9823C30.639 41.1533 30.3073 41.5153 30.0916 41.8853C29.8635 42.2764 29.7257 42.7417 29.7257 43.1663L29.725 75.2318C29.725 80.1979 31.8312 84.8381 34.9579 88.9933C38.0849 93.149 42.2563 96.8517 46.4487 99.9551C54.1737 105.674 62.0384 109.405 63.7256 110.206C63.8268 110.254 63.9058 110.291 63.9612 110.318C64.1685 110.488 64.4172 110.553 64.5935 110.582C64.7972 110.616 64.994 110.616 65.1015 110.616H65.1092C65.2329 110.616 65.3708 110.582 65.4791 110.551C65.6034 110.516 65.7532 110.466 65.9235 110.403C66.265 110.278 66.712 110.094 67.2465 109.857C68.3167 109.382 69.7552 108.685 71.4345 107.791C74.7928 106.005 79.1275 103.426 83.4169 100.253C87.7038 97.0822 91.9619 93.3059 95.1525 89.1213C98.3413 84.9389 100.492 80.3111 100.492 75.4491V43.1664C100.492 42.2964 99.9247 41.5093 99.1861 41.0171L99.1803 41.0134L66.6803 19.9961L66.5564 19.916H66.4313C66.4242 19.9128 66.4101 19.9059 66.3888 19.8916C66.3687 19.8782 66.3509 19.8641 66.3385 19.8534C66.3325 19.8483 66.3285 19.8446 66.3267 19.8429ZM35.0592 75.2314V44.5211L65.1082 25.1271L94.9419 44.52V75.2314C94.9419 78.8255 93.4176 82.339 90.9995 85.6476C88.5825 88.9548 85.2968 92.0233 81.8371 94.7156C75.1046 99.955 67.7782 103.72 65.105 105.011C62.3425 103.724 54.9572 99.9056 48.1915 94.6347C44.718 91.9287 41.4252 88.8531 39.0045 85.5555C36.5822 82.2558 35.0592 78.7698 35.0592 75.2314Z" fill="#110011" stroke="#110011"/>
</svg>
