<svg width="32" height="32" viewBox="0 0 32 32" fill="none" xmlns="http://www.w3.org/2000/svg">
<path d="M18.7 4.627L20.947 8.937C21.1141 9.25427 21.354 9.52743 21.6471 9.7341C21.9401 9.94077 22.278 10.0751 22.633 10.126L27.379 10.776C29.917 11.126 30.901 14.255 29.024 15.995L25.774 18.994C25.4969 19.2486 25.289 19.5692 25.1695 19.926C25.0501 20.2827 25.023 20.664 25.091 21.034L25.884 25.432C26.325 27.882 23.776 29.792 21.539 28.672L17.003 26.422C16.6907 26.2692 16.3476 26.1898 16 26.1898C15.6523 26.1898 15.3092 26.2692 14.997 26.422L10.461 28.672C8.22296 29.782 5.67496 27.882 6.11596 25.432L6.90896 21.033C7.04896 20.283 6.78896 19.513 6.22696 18.993L2.97596 15.995C1.09896 14.265 2.08296 11.125 4.62096 10.775L9.36696 10.125C9.72297 10.0773 10.0622 9.94421 10.3557 9.7372C10.6493 9.53018 10.8885 9.25532 11.053 8.936L13.301 4.627C14.445 2.457 17.565 2.457 18.699 4.627H18.7Z" fill="#FCD53F"/>
</svg>
